<svg xmlns="http://www.w3.org/2000/svg" xmlns:xlink="http://www.w3.org/1999/xlink" width="114" height="118" viewBox="0 0 114 118">
    <defs>
        <filter id="a" width="161.6%" height="161.6%" x="-30.2%" y="-14%" filterUnits="objectBoundingBox">
            <feOffset dy="5" in="SourceAlpha" result="shadowOffsetOuter1"/>
            <feGaussianBlur in="shadowOffsetOuter1" result="shadowBlurOuter1" stdDeviation="3.5"/>
            <feColorMatrix in="shadowBlurOuter1" result="shadowMatrixOuter1" values="0 0 0 0 0 0 0 0 0 0 0 0 0 0 0 0 0 0 0.0850033967 0"/>
            <feMerge>
                <feMergeNode in="shadowMatrixOuter1"/>
                <feMergeNode in="SourceGraphic"/>
            </feMerge>
        </filter>
        <circle id="c" cx="43" cy="43" r="43"/>
        <filter id="b" width="155.8%" height="155.8%" x="-27.9%" y="-17.4%" filterUnits="objectBoundingBox">
            <feOffset dy="9" in="SourceAlpha" result="shadowOffsetOuter1"/>
            <feGaussianBlur in="shadowOffsetOuter1" result="shadowBlurOuter1" stdDeviation="6.5"/>
            <feColorMatrix in="shadowBlurOuter1" values="0 0 0 0 0.186848803 0 0 0 0 0.219426188 0 0 0 0 0.275696216 0 0 0 0.109629755 0"/>
        </filter>
    </defs>
    <g fill="none" fill-rule="evenodd" filter="url(#a)" transform="translate(14 4)">
        <use fill="#000" filter="url(#b)" xlink:href="#c"/>
        <use fill="#FFF" xlink:href="#c"/>
        <g>
            <path fill="#D4551B" d="M62.297 40.565c-3.231 3.212-8.47 3.212-11.7 0l5.85-5.815 5.85 5.815z"/>
            <path fill="#E9E9F1" d="M57.387 68.04H32.001c-3.218 0-5.827-2.593-5.827-5.792v-34.02c0-3.2 2.609-5.793 5.827-5.793h25.386V68.04z"/>
            <path fill="#E77D09" d="M69.797 36.049h-22.94V22.435h9.245c7.563 0 13.695 6.095 13.695 13.614"/>
            <path fill="#35485F" d="M32.001 22.435c-3.218 0-5.827 2.593-5.827 5.793v34.02c0 3.2 2.609 5.793 5.827 5.793h5.455l19.931-19.813V22.435H32.001z"/>
            <path fill="#49B96B" d="M37.576 48.228a13.743 13.743 0 0 1 4.017 9.72c0 3.85-1.88 7.102-4.137 10.093l19.931-19.813H37.576z"/>
            <path fill="#EBEEEF" d="M53.25 32.902c0 3.303-2.693 5.98-6.017 5.98-3.323 0-6.017-2.677-6.017-5.98 0-3.303 2.694-5.981 6.017-5.981 3.324 0 6.017 2.678 6.017 5.98"/>
            <path fill="#2B2B37" d="M49.678 34.77a2.812 2.812 0 0 1-2.82-2.803 2.812 2.812 0 0 1 2.82-2.803l.052.002a4.51 4.51 0 0 0-2.497-.75c-2.492 0-4.512 2.008-4.512 4.486 0 2.477 2.02 4.486 4.512 4.486a4.505 4.505 0 0 0 4.367-3.373 2.816 2.816 0 0 1-1.922.756"/>
            <path fill="#E84A31" d="M37.264 22.447c0 3-2.447 5.434-5.466 5.434v-5.434h5.466z"/>
        </g>
    </g>
</svg>
