<svg xmlns="http://www.w3.org/2000/svg" width="243" height="45" viewBox="0 0 243 45">
    <g fill="none" fill-rule="evenodd">
        <rect width="243" height="45" fill="#FF6D4A" rx="2"/>
        <text fill="#FFF" font-family=".SFNSText, .SF NS Text" font-size="14">
            <tspan x="95" y="28">End Call </tspan>
        </text>
        <path fill="#FFF" d="M85.263 30.562c-.403 0-.78-.11-1.152-.249-1.91-.71-3.688-1.656-5.29-2.924a16.737 16.737 0 0 1-4.031-4.636 17.6 17.6 0 0 1-1.644-3.604c-.331-1.033-.093-1.969.66-2.757.393-.41.8-.804 1.202-1.203.255-.252.572-.252.825 0 1.071 1.07 2.142 2.14 3.212 3.212.23.23.223.557-.018.8l-1.022 1.024a1.25 1.25 0 0 0-.374.683.9.9 0 0 0 .05.505c.363.87.812 1.69 1.438 2.403.684.779 1.52 1.352 2.445 1.802.175.085.353.163.53.244.384.175.741.105 1.078-.125.071-.048.135-.11.197-.17.336-.335.669-.671 1.004-1.006.257-.257.573-.258.83 0 1.063 1.062 2.125 2.125 3.186 3.188.253.253.254.57.004.826-.139.141-.28.28-.42.419-.276.275-.547.555-.83.822a2.636 2.636 0 0 1-1.594.725c-.095.01-.19.014-.286.021"/>
        <path stroke="#FFF" stroke-linecap="square" stroke-width="2" d="M86.5 16.5L73.91 29.09"/>
    </g>
</svg>
